<?xml version="1.0" standalone="no"?>
<!DOCTYPE svg PUBLIC "-//W3C//DTD SVG 20010904//EN"
 "http://www.w3.org/TR/2001/REC-SVG-20010904/DTD/svg10.dtd">
<svg version="1.0" xmlns="http://www.w3.org/2000/svg"
 width="500.000000pt" height="500.000000pt" viewBox="0 0 500.000000 500.000000"
 preserveAspectRatio="xMidYMid meet">
<metadata>
Created by potrace 1.16, written by Peter Selinger 2001-2019
</metadata>
<g transform="translate(0.000000,500.000000) scale(0.100000,-0.100000)"
fill="#FF005C" stroke="none">
<path d="M760 3175 l0 -315 65 0 65 0 0 130 0 130 135 0 135 0 0 -130 0 -130
65 0 65 0 0 315 0 315 -65 0 -65 0 0 -130 0 -130 -135 0 -135 0 0 130 0 130
-65 0 -65 0 0 -315z"/>
<path d="M1757 3452 l-37 -38 0 -240 0 -240 38 -37 38 -37 185 0 185 0 37 38
37 38 0 240 0 240 -38 37 -38 37 -185 0 -185 0 -37 -38z m353 -91 c15 -29 13
-353 -3 -374 -11 -15 -28 -17 -132 -15 l-120 3 -3 190 c-1 104 0 195 2 202 4
10 37 13 125 13 109 0 121 -2 131 -19z"/>
<path d="M2707 3452 l-37 -38 0 -277 0 -277 65 0 65 0 2 258 3 257 60 3 c47 3
62 0 72 -14 10 -13 13 -79 13 -261 l0 -243 60 0 60 0 0 248 c0 180 3 251 12
260 16 16 110 16 126 0 9 -9 12 -80 12 -260 l0 -248 65 0 65 0 0 278 0 278
-38 37 -38 37 -109 0 c-98 0 -111 -2 -132 -22 l-23 -22 -30 22 c-26 19 -42 22
-133 22 l-103 0 -37 -38z"/>
<path d="M3790 3175 l0 -315 240 0 240 0 0 55 0 55 -177 2 -178 3 -3 73 -3 72
136 0 135 0 0 55 0 54 -132 3 -133 3 0 70 0 70 178 3 177 2 0 55 0 55 -240 0
-240 0 0 -315z"/>
<path d="M90 1915 l0 -315 208 0 208 0 62 63 62 63 0 194 0 194 -57 58 -57 58
-213 0 -213 0 0 -315z m383 177 c27 -28 27 -29 27 -177 0 -148 0 -149 -27
-177 -26 -27 -29 -28 -140 -28 l-113 0 0 205 0 205 113 0 c111 0 114 -1 140
-28z"/>
<path d="M1050 1915 l0 -315 240 0 240 0 0 55 0 55 -175 0 -175 0 0 75 0 75
130 0 130 0 0 55 0 55 -130 0 -130 0 0 75 0 75 175 0 175 0 0 55 0 55 -240 0
-240 0 0 -315z"/>
<path d="M1956 2190 l-36 -40 0 -103 0 -103 43 -42 42 -41 155 -3 155 -3 3
-58 c4 -84 0 -87 -132 -87 -122 0 -136 5 -136 52 0 28 0 28 -65 28 l-65 0 0
-53 c0 -49 3 -56 43 -95 l43 -42 185 0 185 0 37 38 37 38 0 110 0 110 -38 37
-38 37 -143 0 c-79 0 -151 5 -162 10 -15 9 -19 22 -19 63 0 29 5 58 12 65 8 8
50 12 123 12 121 0 135 -6 135 -52 0 -28 0 -28 65 -28 l65 0 0 58 c0 54 -3 61
-38 95 l-38 37 -191 0 -191 0 -36 -40z"/>
<path d="M2880 1915 l0 -315 60 0 60 0 0 315 0 315 -60 0 -60 0 0 -315z"/>
<path d="M3467 2192 l-37 -38 0 -240 0 -240 38 -37 38 -37 184 0 184 0 43 42
43 42 0 148 0 148 -140 0 -140 0 0 -55 0 -54 73 -3 72 -3 3 -63 c2 -38 -2 -69
-9 -78 -15 -18 -229 -20 -247 -2 -13 13 -18 351 -6 382 5 13 26 16 123 16 127
0 141 -5 141 -52 0 -28 0 -28 65 -28 l65 0 0 55 c0 49 -4 59 -36 95 l-36 40
-192 0 -192 0 -37 -38z"/>
<path d="M4417 2192 l-37 -38 0 -277 0 -277 65 0 65 0 0 248 c0 180 3 251 12
260 8 8 50 12 123 12 73 0 115 -4 123 -12 9 -9 12 -80 12 -260 l0 -248 65 0
65 0 0 278 0 278 -38 37 -38 37 -190 0 -190 0 -37 -38z"/>
</g>
</svg>
